<mxfile>
    <diagram id="UPBEb2TTziudW-EZ5Ple" name="Page-1">
        <mxGraphModel dx="951" dy="654" grid="1" gridSize="10" guides="1" tooltips="1" connect="1" arrows="1" fold="1" page="1" pageScale="1" pageWidth="1169" pageHeight="827" math="0" shadow="0">
            <root>
                <mxCell id="0"/>
                <mxCell id="1" parent="0"/>
                <mxCell id="9Q4XjMa0IG0PHS_X8gSo-51" value="" style="text;strokeColor=#B09500;fillColor=#e3c800;align=left;verticalAlign=middle;spacingTop=-1;spacingLeft=4;spacingRight=4;rotatable=0;labelPosition=right;points=[];portConstraint=eastwest;opacity=70;fontColor=#ffffff;" parent="1" vertex="1">
                    <mxGeometry x="600" width="500" height="490" as="geometry"/>
                </mxCell>
                <mxCell id="9Q4XjMa0IG0PHS_X8gSo-10" value="" style="text;strokeColor=#d79b00;fillColor=#ffe6cc;align=left;verticalAlign=middle;spacingTop=-1;spacingLeft=4;spacingRight=4;rotatable=0;labelPosition=right;points=[];portConstraint=eastwest;opacity=70;" parent="1" vertex="1">
                    <mxGeometry width="600" height="490" as="geometry"/>
                </mxCell>
                <mxCell id="9Q4XjMa0IG0PHS_X8gSo-1" value="User" style="swimlane;fontStyle=0;childLayout=stackLayout;horizontal=1;startSize=26;fillColor=none;horizontalStack=0;resizeParent=1;resizeParentMax=0;resizeLast=0;collapsible=1;marginBottom=0;" parent="1" vertex="1">
                    <mxGeometry x="10" y="80" width="170" height="260" as="geometry"/>
                </mxCell>
                <mxCell id="9Q4XjMa0IG0PHS_X8gSo-9" value="id : integer (PK)" style="text;strokeColor=none;fillColor=none;align=left;verticalAlign=top;spacingLeft=4;spacingRight=4;overflow=hidden;rotatable=0;points=[[0,0.5],[1,0.5]];portConstraint=eastwest;" parent="9Q4XjMa0IG0PHS_X8gSo-1" vertex="1">
                    <mxGeometry y="26" width="170" height="26" as="geometry"/>
                </mxCell>
                <mxCell id="9Q4XjMa0IG0PHS_X8gSo-2" value="username : Char (PK)" style="text;strokeColor=none;fillColor=none;align=left;verticalAlign=top;spacingLeft=4;spacingRight=4;overflow=hidden;rotatable=0;points=[[0,0.5],[1,0.5]];portConstraint=eastwest;" parent="9Q4XjMa0IG0PHS_X8gSo-1" vertex="1">
                    <mxGeometry y="52" width="170" height="26" as="geometry"/>
                </mxCell>
                <mxCell id="9Q4XjMa0IG0PHS_X8gSo-3" value="first_name: Char" style="text;strokeColor=none;fillColor=none;align=left;verticalAlign=top;spacingLeft=4;spacingRight=4;overflow=hidden;rotatable=0;points=[[0,0.5],[1,0.5]];portConstraint=eastwest;" parent="9Q4XjMa0IG0PHS_X8gSo-1" vertex="1">
                    <mxGeometry y="78" width="170" height="26" as="geometry"/>
                </mxCell>
                <mxCell id="9Q4XjMa0IG0PHS_X8gSo-4" value="last_name: Char" style="text;strokeColor=none;fillColor=none;align=left;verticalAlign=top;spacingLeft=4;spacingRight=4;overflow=hidden;rotatable=0;points=[[0,0.5],[1,0.5]];portConstraint=eastwest;" parent="9Q4XjMa0IG0PHS_X8gSo-1" vertex="1">
                    <mxGeometry y="104" width="170" height="26" as="geometry"/>
                </mxCell>
                <mxCell id="9Q4XjMa0IG0PHS_X8gSo-5" value="is_staff: boolean" style="text;strokeColor=none;fillColor=none;align=left;verticalAlign=top;spacingLeft=4;spacingRight=4;overflow=hidden;rotatable=0;points=[[0,0.5],[1,0.5]];portConstraint=eastwest;" parent="9Q4XjMa0IG0PHS_X8gSo-1" vertex="1">
                    <mxGeometry y="130" width="170" height="26" as="geometry"/>
                </mxCell>
                <mxCell id="9Q4XjMa0IG0PHS_X8gSo-6" value="is_superuser : boolean" style="text;strokeColor=none;fillColor=none;align=left;verticalAlign=top;spacingLeft=4;spacingRight=4;overflow=hidden;rotatable=0;points=[[0,0.5],[1,0.5]];portConstraint=eastwest;" parent="9Q4XjMa0IG0PHS_X8gSo-1" vertex="1">
                    <mxGeometry y="156" width="170" height="26" as="geometry"/>
                </mxCell>
                <mxCell id="9Q4XjMa0IG0PHS_X8gSo-39" value="is_active : boolean" style="text;strokeColor=none;fillColor=none;align=left;verticalAlign=top;spacingLeft=4;spacingRight=4;overflow=hidden;rotatable=0;points=[[0,0.5],[1,0.5]];portConstraint=eastwest;" parent="9Q4XjMa0IG0PHS_X8gSo-1" vertex="1">
                    <mxGeometry y="182" width="170" height="26" as="geometry"/>
                </mxCell>
                <mxCell id="9Q4XjMa0IG0PHS_X8gSo-8" value="last_login : DateTime" style="text;strokeColor=none;fillColor=none;align=left;verticalAlign=top;spacingLeft=4;spacingRight=4;overflow=hidden;rotatable=0;points=[[0,0.5],[1,0.5]];portConstraint=eastwest;" parent="9Q4XjMa0IG0PHS_X8gSo-1" vertex="1">
                    <mxGeometry y="208" width="170" height="26" as="geometry"/>
                </mxCell>
                <mxCell id="9Q4XjMa0IG0PHS_X8gSo-7" value="date_joined : DateTime" style="text;strokeColor=none;fillColor=none;align=left;verticalAlign=top;spacingLeft=4;spacingRight=4;overflow=hidden;rotatable=0;points=[[0,0.5],[1,0.5]];portConstraint=eastwest;" parent="9Q4XjMa0IG0PHS_X8gSo-1" vertex="1">
                    <mxGeometry y="234" width="170" height="26" as="geometry"/>
                </mxCell>
                <mxCell id="9Q4XjMa0IG0PHS_X8gSo-12" value="Product" style="swimlane;fontStyle=0;childLayout=stackLayout;horizontal=1;startSize=26;fillColor=none;horizontalStack=0;resizeParent=1;resizeParentMax=0;resizeLast=0;collapsible=1;marginBottom=0;opacity=70;" parent="1" vertex="1">
                    <mxGeometry x="850" y="20" width="170" height="234" as="geometry"/>
                </mxCell>
                <mxCell id="9Q4XjMa0IG0PHS_X8gSo-13" value="id : integer (PK)" style="text;strokeColor=none;fillColor=none;align=left;verticalAlign=top;spacingLeft=4;spacingRight=4;overflow=hidden;rotatable=0;points=[[0,0.5],[1,0.5]];portConstraint=eastwest;" parent="9Q4XjMa0IG0PHS_X8gSo-12" vertex="1">
                    <mxGeometry y="26" width="170" height="26" as="geometry"/>
                </mxCell>
                <mxCell id="9Q4XjMa0IG0PHS_X8gSo-41" value="price : float" style="text;strokeColor=none;fillColor=none;align=left;verticalAlign=top;spacingLeft=4;spacingRight=4;overflow=hidden;rotatable=0;points=[[0,0.5],[1,0.5]];portConstraint=eastwest;" parent="9Q4XjMa0IG0PHS_X8gSo-12" vertex="1">
                    <mxGeometry y="52" width="170" height="26" as="geometry"/>
                </mxCell>
                <mxCell id="9Q4XjMa0IG0PHS_X8gSo-66" value="Manufacturer : char" style="text;strokeColor=none;fillColor=none;align=left;verticalAlign=top;spacingLeft=4;spacingRight=4;overflow=hidden;rotatable=0;points=[[0,0.5],[1,0.5]];portConstraint=eastwest;" parent="9Q4XjMa0IG0PHS_X8gSo-12" vertex="1">
                    <mxGeometry y="78" width="170" height="26" as="geometry"/>
                </mxCell>
                <mxCell id="9Q4XjMa0IG0PHS_X8gSo-42" value="category: Char" style="text;strokeColor=none;fillColor=none;align=left;verticalAlign=top;spacingLeft=4;spacingRight=4;overflow=hidden;rotatable=0;points=[[0,0.5],[1,0.5]];portConstraint=eastwest;" parent="9Q4XjMa0IG0PHS_X8gSo-12" vertex="1">
                    <mxGeometry y="104" width="170" height="26" as="geometry"/>
                </mxCell>
                <mxCell id="9Q4XjMa0IG0PHS_X8gSo-14" value="name : Char" style="text;strokeColor=none;fillColor=none;align=left;verticalAlign=top;spacingLeft=4;spacingRight=4;overflow=hidden;rotatable=0;points=[[0,0.5],[1,0.5]];portConstraint=eastwest;" parent="9Q4XjMa0IG0PHS_X8gSo-12" vertex="1">
                    <mxGeometry y="130" width="170" height="26" as="geometry"/>
                </mxCell>
                <mxCell id="9Q4XjMa0IG0PHS_X8gSo-15" value="rating : float" style="text;strokeColor=none;fillColor=none;align=left;verticalAlign=top;spacingLeft=4;spacingRight=4;overflow=hidden;rotatable=0;points=[[0,0.5],[1,0.5]];portConstraint=eastwest;" parent="9Q4XjMa0IG0PHS_X8gSo-12" vertex="1">
                    <mxGeometry y="156" width="170" height="26" as="geometry"/>
                </mxCell>
                <mxCell id="OqmwpgkLxYmQuUE8nbPh-5" value="id_image: integer (FK)" style="text;strokeColor=none;fillColor=none;align=left;verticalAlign=top;spacingLeft=4;spacingRight=4;overflow=hidden;rotatable=0;points=[[0,0.5],[1,0.5]];portConstraint=eastwest;" vertex="1" parent="9Q4XjMa0IG0PHS_X8gSo-12">
                    <mxGeometry y="182" width="170" height="26" as="geometry"/>
                </mxCell>
                <mxCell id="9Q4XjMa0IG0PHS_X8gSo-20" value="description : Char" style="text;strokeColor=none;fillColor=none;align=left;verticalAlign=top;spacingLeft=4;spacingRight=4;overflow=hidden;rotatable=0;points=[[0,0.5],[1,0.5]];portConstraint=eastwest;opacity=70;" parent="9Q4XjMa0IG0PHS_X8gSo-12" vertex="1">
                    <mxGeometry y="208" width="170" height="26" as="geometry"/>
                </mxCell>
                <mxCell id="9Q4XjMa0IG0PHS_X8gSo-16" value="feedback" style="swimlane;fontStyle=0;childLayout=stackLayout;horizontal=1;startSize=26;fillColor=none;horizontalStack=0;resizeParent=1;resizeParentMax=0;resizeLast=0;collapsible=1;marginBottom=0;opacity=70;" parent="1" vertex="1">
                    <mxGeometry x="630" y="20" width="140" height="182" as="geometry"/>
                </mxCell>
                <mxCell id="9Q4XjMa0IG0PHS_X8gSo-17" value="id: integer (PK)" style="text;strokeColor=none;fillColor=none;align=left;verticalAlign=top;spacingLeft=4;spacingRight=4;overflow=hidden;rotatable=0;points=[[0,0.5],[1,0.5]];portConstraint=eastwest;" parent="9Q4XjMa0IG0PHS_X8gSo-16" vertex="1">
                    <mxGeometry y="26" width="140" height="26" as="geometry"/>
                </mxCell>
                <mxCell id="9Q4XjMa0IG0PHS_X8gSo-18" value="rating :tinyint" style="text;strokeColor=none;fillColor=none;align=left;verticalAlign=top;spacingLeft=4;spacingRight=4;overflow=hidden;rotatable=0;points=[[0,0.5],[1,0.5]];portConstraint=eastwest;" parent="9Q4XjMa0IG0PHS_X8gSo-16" vertex="1">
                    <mxGeometry y="52" width="140" height="26" as="geometry"/>
                </mxCell>
                <mxCell id="9Q4XjMa0IG0PHS_X8gSo-19" value="id_user : int (FK)" style="text;strokeColor=none;fillColor=none;align=left;verticalAlign=top;spacingLeft=4;spacingRight=4;overflow=hidden;rotatable=0;points=[[0,0.5],[1,0.5]];portConstraint=eastwest;" parent="9Q4XjMa0IG0PHS_X8gSo-16" vertex="1">
                    <mxGeometry y="78" width="140" height="26" as="geometry"/>
                </mxCell>
                <mxCell id="9Q4XjMa0IG0PHS_X8gSo-40" value="feedBackText: text" style="text;strokeColor=none;fillColor=none;align=left;verticalAlign=top;spacingLeft=4;spacingRight=4;overflow=hidden;rotatable=0;points=[[0,0.5],[1,0.5]];portConstraint=eastwest;opacity=70;" parent="9Q4XjMa0IG0PHS_X8gSo-16" vertex="1">
                    <mxGeometry y="104" width="140" height="26" as="geometry"/>
                </mxCell>
                <mxCell id="9Q4XjMa0IG0PHS_X8gSo-24" value="date_added : DateTime" style="text;strokeColor=none;fillColor=none;align=left;verticalAlign=top;spacingLeft=4;spacingRight=4;overflow=hidden;rotatable=0;points=[[0,0.5],[1,0.5]];portConstraint=eastwest;opacity=70;" parent="9Q4XjMa0IG0PHS_X8gSo-16" vertex="1">
                    <mxGeometry y="130" width="140" height="26" as="geometry"/>
                </mxCell>
                <mxCell id="9Q4XjMa0IG0PHS_X8gSo-21" value="id_product : int (FK)" style="text;strokeColor=none;fillColor=none;align=left;verticalAlign=top;spacingLeft=4;spacingRight=4;overflow=hidden;rotatable=0;points=[[0,0.5],[1,0.5]];portConstraint=eastwest;opacity=70;" parent="9Q4XjMa0IG0PHS_X8gSo-16" vertex="1">
                    <mxGeometry y="156" width="140" height="26" as="geometry"/>
                </mxCell>
                <mxCell id="9Q4XjMa0IG0PHS_X8gSo-22" style="edgeStyle=orthogonalEdgeStyle;rounded=0;orthogonalLoop=1;jettySize=auto;html=1;entryX=0;entryY=0.5;entryDx=0;entryDy=0;curved=1;" parent="1" source="9Q4XjMa0IG0PHS_X8gSo-21" target="9Q4XjMa0IG0PHS_X8gSo-13" edge="1">
                    <mxGeometry relative="1" as="geometry"/>
                </mxCell>
                <mxCell id="9Q4XjMa0IG0PHS_X8gSo-23" style="edgeStyle=orthogonalEdgeStyle;rounded=0;orthogonalLoop=1;jettySize=auto;html=1;entryX=1;entryY=0.5;entryDx=0;entryDy=0;curved=1;" parent="1" source="9Q4XjMa0IG0PHS_X8gSo-19" target="9Q4XjMa0IG0PHS_X8gSo-9" edge="1">
                    <mxGeometry relative="1" as="geometry">
                        <Array as="points">
                            <mxPoint x="590" y="111"/>
                            <mxPoint x="590" y="50"/>
                            <mxPoint x="220" y="50"/>
                            <mxPoint x="220" y="119"/>
                        </Array>
                    </mxGeometry>
                </mxCell>
                <mxCell id="9Q4XjMa0IG0PHS_X8gSo-25" value="Purchases" style="swimlane;fontStyle=0;childLayout=stackLayout;horizontal=1;startSize=26;fillColor=none;horizontalStack=0;resizeParent=1;resizeParentMax=0;resizeLast=0;collapsible=1;marginBottom=0;opacity=70;" parent="1" vertex="1">
                    <mxGeometry x="240" y="326" width="140" height="130" as="geometry"/>
                </mxCell>
                <mxCell id="9Q4XjMa0IG0PHS_X8gSo-26" value="id : int" style="text;strokeColor=none;fillColor=none;align=left;verticalAlign=top;spacingLeft=4;spacingRight=4;overflow=hidden;rotatable=0;points=[[0,0.5],[1,0.5]];portConstraint=eastwest;" parent="9Q4XjMa0IG0PHS_X8gSo-25" vertex="1">
                    <mxGeometry y="26" width="140" height="26" as="geometry"/>
                </mxCell>
                <mxCell id="9Q4XjMa0IG0PHS_X8gSo-27" value="id_user : int (FK)" style="text;strokeColor=none;fillColor=none;align=left;verticalAlign=top;spacingLeft=4;spacingRight=4;overflow=hidden;rotatable=0;points=[[0,0.5],[1,0.5]];portConstraint=eastwest;" parent="9Q4XjMa0IG0PHS_X8gSo-25" vertex="1">
                    <mxGeometry y="52" width="140" height="26" as="geometry"/>
                </mxCell>
                <mxCell id="9Q4XjMa0IG0PHS_X8gSo-43" value="date_purchase: DateTime" style="text;strokeColor=none;fillColor=none;align=left;verticalAlign=top;spacingLeft=4;spacingRight=4;overflow=hidden;rotatable=0;points=[[0,0.5],[1,0.5]];portConstraint=eastwest;" parent="9Q4XjMa0IG0PHS_X8gSo-25" vertex="1">
                    <mxGeometry y="78" width="140" height="26" as="geometry"/>
                </mxCell>
                <mxCell id="9Q4XjMa0IG0PHS_X8gSo-28" value="id_product : int (FK)" style="text;strokeColor=none;fillColor=none;align=left;verticalAlign=top;spacingLeft=4;spacingRight=4;overflow=hidden;rotatable=0;points=[[0,0.5],[1,0.5]];portConstraint=eastwest;" parent="9Q4XjMa0IG0PHS_X8gSo-25" vertex="1">
                    <mxGeometry y="104" width="140" height="26" as="geometry"/>
                </mxCell>
                <mxCell id="9Q4XjMa0IG0PHS_X8gSo-29" style="edgeStyle=orthogonalEdgeStyle;rounded=0;orthogonalLoop=1;jettySize=auto;html=1;entryX=1;entryY=0.5;entryDx=0;entryDy=0;curved=1;" parent="1" source="9Q4XjMa0IG0PHS_X8gSo-27" target="9Q4XjMa0IG0PHS_X8gSo-9" edge="1">
                    <mxGeometry relative="1" as="geometry">
                        <Array as="points">
                            <mxPoint x="200" y="391"/>
                            <mxPoint x="200" y="119"/>
                        </Array>
                    </mxGeometry>
                </mxCell>
                <mxCell id="9Q4XjMa0IG0PHS_X8gSo-30" style="edgeStyle=orthogonalEdgeStyle;rounded=0;orthogonalLoop=1;jettySize=auto;html=1;curved=1;entryX=1;entryY=0.5;entryDx=0;entryDy=0;" parent="1" source="9Q4XjMa0IG0PHS_X8gSo-28" target="9Q4XjMa0IG0PHS_X8gSo-13" edge="1">
                    <mxGeometry relative="1" as="geometry">
                        <mxPoint x="890" y="59" as="targetPoint"/>
                        <Array as="points">
                            <mxPoint x="1060" y="443"/>
                            <mxPoint x="1060" y="59"/>
                        </Array>
                    </mxGeometry>
                </mxCell>
                <mxCell id="9Q4XjMa0IG0PHS_X8gSo-45" value="Adress" style="swimlane;fontStyle=0;childLayout=stackLayout;horizontal=1;startSize=26;fillColor=none;horizontalStack=0;resizeParent=1;resizeParentMax=0;resizeLast=0;collapsible=1;marginBottom=0;opacity=70;" parent="1" vertex="1">
                    <mxGeometry x="230" y="100" width="140" height="156" as="geometry"/>
                </mxCell>
                <mxCell id="9Q4XjMa0IG0PHS_X8gSo-46" value="id: int (PK)" style="text;strokeColor=none;fillColor=none;align=left;verticalAlign=top;spacingLeft=4;spacingRight=4;overflow=hidden;rotatable=0;points=[[0,0.5],[1,0.5]];portConstraint=eastwest;" parent="9Q4XjMa0IG0PHS_X8gSo-45" vertex="1">
                    <mxGeometry y="26" width="140" height="26" as="geometry"/>
                </mxCell>
                <mxCell id="9Q4XjMa0IG0PHS_X8gSo-47" value="user_id : int (FK)" style="text;strokeColor=none;fillColor=none;align=left;verticalAlign=top;spacingLeft=4;spacingRight=4;overflow=hidden;rotatable=0;points=[[0,0.5],[1,0.5]];portConstraint=eastwest;" parent="9Q4XjMa0IG0PHS_X8gSo-45" vertex="1">
                    <mxGeometry y="52" width="140" height="26" as="geometry"/>
                </mxCell>
                <mxCell id="9Q4XjMa0IG0PHS_X8gSo-48" value="country_id : int" style="text;strokeColor=none;fillColor=none;align=left;verticalAlign=top;spacingLeft=4;spacingRight=4;overflow=hidden;rotatable=0;points=[[0,0.5],[1,0.5]];portConstraint=eastwest;" parent="9Q4XjMa0IG0PHS_X8gSo-45" vertex="1">
                    <mxGeometry y="78" width="140" height="26" as="geometry"/>
                </mxCell>
                <mxCell id="9Q4XjMa0IG0PHS_X8gSo-49" value="city_id : int" style="text;strokeColor=none;fillColor=none;align=left;verticalAlign=top;spacingLeft=4;spacingRight=4;overflow=hidden;rotatable=0;points=[[0,0.5],[1,0.5]];portConstraint=eastwest;" parent="9Q4XjMa0IG0PHS_X8gSo-45" vertex="1">
                    <mxGeometry y="104" width="140" height="26" as="geometry"/>
                </mxCell>
                <mxCell id="9Q4XjMa0IG0PHS_X8gSo-50" value="adress : char" style="text;strokeColor=none;fillColor=none;align=left;verticalAlign=top;spacingLeft=4;spacingRight=4;overflow=hidden;rotatable=0;points=[[0,0.5],[1,0.5]];portConstraint=eastwest;" parent="9Q4XjMa0IG0PHS_X8gSo-45" vertex="1">
                    <mxGeometry y="130" width="140" height="26" as="geometry"/>
                </mxCell>
                <mxCell id="9Q4XjMa0IG0PHS_X8gSo-52" value="country" style="swimlane;fontStyle=0;childLayout=stackLayout;horizontal=1;startSize=26;fillColor=none;horizontalStack=0;resizeParent=1;resizeParentMax=0;resizeLast=0;collapsible=1;marginBottom=0;opacity=70;" parent="1" vertex="1">
                    <mxGeometry x="420" y="70" width="140" height="78" as="geometry"/>
                </mxCell>
                <mxCell id="9Q4XjMa0IG0PHS_X8gSo-53" value="id: int (PK)" style="text;strokeColor=none;fillColor=none;align=left;verticalAlign=top;spacingLeft=4;spacingRight=4;overflow=hidden;rotatable=0;points=[[0,0.5],[1,0.5]];portConstraint=eastwest;" parent="9Q4XjMa0IG0PHS_X8gSo-52" vertex="1">
                    <mxGeometry y="26" width="140" height="26" as="geometry"/>
                </mxCell>
                <mxCell id="9Q4XjMa0IG0PHS_X8gSo-55" value="name : char" style="text;strokeColor=none;fillColor=none;align=left;verticalAlign=top;spacingLeft=4;spacingRight=4;overflow=hidden;rotatable=0;points=[[0,0.5],[1,0.5]];portConstraint=eastwest;" parent="9Q4XjMa0IG0PHS_X8gSo-52" vertex="1">
                    <mxGeometry y="52" width="140" height="26" as="geometry"/>
                </mxCell>
                <mxCell id="9Q4XjMa0IG0PHS_X8gSo-58" style="edgeStyle=orthogonalEdgeStyle;curved=1;rounded=0;orthogonalLoop=1;jettySize=auto;html=1;" parent="1" source="9Q4XjMa0IG0PHS_X8gSo-53" target="9Q4XjMa0IG0PHS_X8gSo-48" edge="1">
                    <mxGeometry relative="1" as="geometry"/>
                </mxCell>
                <mxCell id="9Q4XjMa0IG0PHS_X8gSo-59" value="city" style="swimlane;fontStyle=0;childLayout=stackLayout;horizontal=1;startSize=26;fillColor=none;horizontalStack=0;resizeParent=1;resizeParentMax=0;resizeLast=0;collapsible=1;marginBottom=0;opacity=70;" parent="1" vertex="1">
                    <mxGeometry x="420" y="210" width="140" height="104" as="geometry"/>
                </mxCell>
                <mxCell id="9Q4XjMa0IG0PHS_X8gSo-60" value="id: int (PK)" style="text;strokeColor=none;fillColor=none;align=left;verticalAlign=top;spacingLeft=4;spacingRight=4;overflow=hidden;rotatable=0;points=[[0,0.5],[1,0.5]];portConstraint=eastwest;" parent="9Q4XjMa0IG0PHS_X8gSo-59" vertex="1">
                    <mxGeometry y="26" width="140" height="26" as="geometry"/>
                </mxCell>
                <mxCell id="9Q4XjMa0IG0PHS_X8gSo-63" value="country_id : int (FK)" style="text;strokeColor=none;fillColor=none;align=left;verticalAlign=top;spacingLeft=4;spacingRight=4;overflow=hidden;rotatable=0;points=[[0,0.5],[1,0.5]];portConstraint=eastwest;" parent="9Q4XjMa0IG0PHS_X8gSo-59" vertex="1">
                    <mxGeometry y="52" width="140" height="26" as="geometry"/>
                </mxCell>
                <mxCell id="9Q4XjMa0IG0PHS_X8gSo-61" value="name : char" style="text;strokeColor=none;fillColor=none;align=left;verticalAlign=top;spacingLeft=4;spacingRight=4;overflow=hidden;rotatable=0;points=[[0,0.5],[1,0.5]];portConstraint=eastwest;" parent="9Q4XjMa0IG0PHS_X8gSo-59" vertex="1">
                    <mxGeometry y="78" width="140" height="26" as="geometry"/>
                </mxCell>
                <mxCell id="9Q4XjMa0IG0PHS_X8gSo-62" style="edgeStyle=orthogonalEdgeStyle;curved=1;rounded=0;orthogonalLoop=1;jettySize=auto;html=1;" parent="1" source="9Q4XjMa0IG0PHS_X8gSo-60" target="9Q4XjMa0IG0PHS_X8gSo-49" edge="1">
                    <mxGeometry relative="1" as="geometry"/>
                </mxCell>
                <mxCell id="9Q4XjMa0IG0PHS_X8gSo-64" style="edgeStyle=orthogonalEdgeStyle;curved=1;rounded=0;orthogonalLoop=1;jettySize=auto;html=1;entryX=1;entryY=0.5;entryDx=0;entryDy=0;" parent="1" source="9Q4XjMa0IG0PHS_X8gSo-63" target="9Q4XjMa0IG0PHS_X8gSo-53" edge="1">
                    <mxGeometry relative="1" as="geometry">
                        <Array as="points">
                            <mxPoint x="590" y="275"/>
                            <mxPoint x="590" y="109"/>
                        </Array>
                    </mxGeometry>
                </mxCell>
                <mxCell id="9Q4XjMa0IG0PHS_X8gSo-65" style="edgeStyle=orthogonalEdgeStyle;curved=1;rounded=0;orthogonalLoop=1;jettySize=auto;html=1;entryX=1;entryY=0.5;entryDx=0;entryDy=0;" parent="1" source="9Q4XjMa0IG0PHS_X8gSo-47" target="9Q4XjMa0IG0PHS_X8gSo-9" edge="1">
                    <mxGeometry relative="1" as="geometry"/>
                </mxCell>
                <mxCell id="OqmwpgkLxYmQuUE8nbPh-1" value="Image" style="swimlane;fontStyle=0;childLayout=stackLayout;horizontal=1;startSize=26;fillColor=none;horizontalStack=0;resizeParent=1;resizeParentMax=0;resizeLast=0;collapsible=1;marginBottom=0;" vertex="1" parent="1">
                    <mxGeometry x="640" y="223" width="140" height="78" as="geometry"/>
                </mxCell>
                <mxCell id="OqmwpgkLxYmQuUE8nbPh-2" value="id:integer (PK)" style="text;strokeColor=none;fillColor=none;align=left;verticalAlign=top;spacingLeft=4;spacingRight=4;overflow=hidden;rotatable=0;points=[[0,0.5],[1,0.5]];portConstraint=eastwest;" vertex="1" parent="OqmwpgkLxYmQuUE8nbPh-1">
                    <mxGeometry y="26" width="140" height="26" as="geometry"/>
                </mxCell>
                <mxCell id="OqmwpgkLxYmQuUE8nbPh-4" value="image: BLOB" style="text;strokeColor=none;fillColor=none;align=left;verticalAlign=top;spacingLeft=4;spacingRight=4;overflow=hidden;rotatable=0;points=[[0,0.5],[1,0.5]];portConstraint=eastwest;" vertex="1" parent="OqmwpgkLxYmQuUE8nbPh-1">
                    <mxGeometry y="52" width="140" height="26" as="geometry"/>
                </mxCell>
                <mxCell id="OqmwpgkLxYmQuUE8nbPh-6" style="edgeStyle=orthogonalEdgeStyle;rounded=0;orthogonalLoop=1;jettySize=auto;html=1;entryX=1;entryY=0.5;entryDx=0;entryDy=0;curved=1;" edge="1" parent="1" source="OqmwpgkLxYmQuUE8nbPh-5" target="OqmwpgkLxYmQuUE8nbPh-2">
                    <mxGeometry relative="1" as="geometry"/>
                </mxCell>
            </root>
        </mxGraphModel>
    </diagram>
</mxfile>